REM DIRINDEX 1\2,1\3,1\4,1\5
REM DIRNAME "folder01","folder02","folder03","folder04","folder05"
TITLE ""
FILE "P1Q_t_0129-0138.mp3" MP3
  TRACK 01 AUDIO
    TITLE "0:"
    INDEX 01 00:00:00
  TRACK 02 AUDIO
    TITLE "3:cjc173_1299"
    INDEX 01 00:00:08
  TRACK 03 AUDIO
    TITLE "0:"
    INDEX 01 00:01:47
  TRACK 04 AUDIO
    TITLE "4:cjc173_1300"
    INDEX 01 00:01:70
  TRACK 05 AUDIO
    TITLE "0:"
    INDEX 01 00:05:10
  TRACK 06 AUDIO
    TITLE "5:cjc173_1301"
    INDEX 01 00:05:29
  TRACK 07 AUDIO
    TITLE "0:"
    INDEX 01 00:10:30
  TRACK 08 AUDIO
    TITLE "3:cjc173_1302"
    INDEX 01 00:11:02
  TRACK 09 AUDIO
    TITLE "0:"
    INDEX 01 00:12:04
  TRACK 10 AUDIO
    TITLE "4:cjc173_1303"
    INDEX 01 00:12:23
  TRACK 11 AUDIO
    TITLE "0:"
    INDEX 01 00:14:38
  TRACK 12 AUDIO
    TITLE "5:cjc173_1304"
    INDEX 01 00:14:59
  TRACK 13 AUDIO
    TITLE "0:"
    INDEX 01 00:19:41
  TRACK 14 AUDIO
    TITLE "3:cjc173_1305"
    INDEX 01 00:20:13
  TRACK 15 AUDIO
    TITLE "0:"
    INDEX 01 00:21:22
  TRACK 16 AUDIO
    TITLE "4:cjc173_1306"
    INDEX 01 00:21:44
  TRACK 17 AUDIO
    TITLE "0:"
    INDEX 01 00:23:72
  TRACK 18 AUDIO
    TITLE "5:cjc173_1307"
    INDEX 01 00:24:17
  TRACK 19 AUDIO
    TITLE "0:"
    INDEX 01 00:28:07
  TRACK 20 AUDIO
    TITLE "3:cjc173_1308"
    INDEX 01 00:28:52
  TRACK 21 AUDIO
    TITLE "0:"
    INDEX 01 00:29:55
  TRACK 22 AUDIO
    TITLE "4:cjc173_1309"
    INDEX 01 00:30:02
  TRACK 23 AUDIO
    TITLE "0:"
    INDEX 01 00:31:40
  TRACK 24 AUDIO
    TITLE "5:cjc173_1310"
    INDEX 01 00:31:60
  TRACK 25 AUDIO
    TITLE "0:"
    INDEX 01 00:35:28
  TRACK 26 AUDIO
    TITLE "3:cjc173_1311"
    INDEX 01 00:36:04
  TRACK 27 AUDIO
    TITLE "0:"
    INDEX 01 00:37:29
  TRACK 28 AUDIO
    TITLE "4:cjc173_1312"
    INDEX 01 00:37:53
  TRACK 29 AUDIO
    TITLE "0:"
    INDEX 01 00:39:14
  TRACK 30 AUDIO
    TITLE "5:cjc173_1313"
    INDEX 01 00:39:34
  TRACK 31 AUDIO
    TITLE "0:"
    INDEX 01 00:45:66
  TRACK 32 AUDIO
    TITLE "3:cjc173_1314"
    INDEX 01 00:46:36
  TRACK 33 AUDIO
    TITLE "0:"
    INDEX 01 00:47:55
  TRACK 34 AUDIO
    TITLE "4:cjc173_1315"
    INDEX 01 00:48:01
  TRACK 35 AUDIO
    TITLE "0:"
    INDEX 01 00:49:34
  TRACK 36 AUDIO
    TITLE "5:cjc173_1316"
    INDEX 01 00:49:54
  TRACK 37 AUDIO
    TITLE "0:"
    INDEX 01 00:55:41
  TRACK 38 AUDIO
    TITLE "3:cjc173_1317"
    INDEX 01 00:56:13
  TRACK 39 AUDIO
    TITLE "0:"
    INDEX 01 00:57:24
  TRACK 40 AUDIO
    TITLE "4:cjc173_1318"
    INDEX 01 00:57:46
  TRACK 41 AUDIO
    TITLE "0:"
    INDEX 01 01:00:32
  TRACK 42 AUDIO
    TITLE "5:cjc173_1319"
    INDEX 01 01:00:52
  TRACK 43 AUDIO
    TITLE "0:"
    INDEX 01 01:05:33
  TRACK 44 AUDIO
    TITLE "3:cjc173_1320"
    INDEX 01 01:06:03
  TRACK 45 AUDIO
    TITLE "0:"
    INDEX 01 01:07:15
  TRACK 46 AUDIO
    TITLE "4:cjc173_1321"
    INDEX 01 01:07:36
  TRACK 47 AUDIO
    TITLE "0:"
    INDEX 01 01:11:14
  TRACK 48 AUDIO
    TITLE "5:cjc173_1322"
    INDEX 01 01:11:34
  TRACK 49 AUDIO
    TITLE "0:"
    INDEX 01 01:15:59
  TRACK 50 AUDIO
    TITLE "3:cjc173_1323"
    INDEX 01 01:16:29
  TRACK 51 AUDIO
    TITLE "0:"
    INDEX 01 01:17:40
  TRACK 52 AUDIO
    TITLE "4:cjc173_1324"
    INDEX 01 01:17:64
  TRACK 53 AUDIO
    TITLE "0:"
    INDEX 01 01:20:07
  TRACK 54 AUDIO
    TITLE "5:cjc173_1325"
    INDEX 01 01:20:29
  TRACK 55 AUDIO
    TITLE "0:"
    INDEX 01 01:24:03
  TRACK 56 AUDIO
    TITLE "3:cjc173_1326"
    INDEX 01 01:24:48
  TRACK 57 AUDIO
    TITLE "0:"
    INDEX 01 01:25:63
  TRACK 58 AUDIO
    TITLE "4:cjc173_1327"
    INDEX 01 01:26:10
  TRACK 59 AUDIO
    TITLE "0:"
    INDEX 01 01:30:12
  TRACK 60 AUDIO
    TITLE "5:cjc173_1328"
    INDEX 01 01:30:29
  TRACK 61 AUDIO
    TITLE "0:"
    INDEX 01 01:35:50
